<?xml version="1.0" encoding="UTF-8"?>
<svg version="1.1" viewBox="0 0 1000 1000" width="1280" height="1280" xmlns="http://www.w3.org/2000/svg">
<path transform="translate(11,7)" d="m0 0h291l39 2 35 4 31 6 27 7 24 8 22 9 26 13 17 11 13 9 11 9 13 11 11 11 7 8 10 12 11 15 13 22 8 16 10 23 9 28 6 27 4 25 3 25v6h338l4 1v137l-2 1h-299v160h211l33 1 1 1v121l-6 1h-239v254l-2 1h-160l-1-1v-371l-11 6-16 10-28 14-30 11-24 7-26 6-31 5-28 3-14 1-30 1h-283l-1-1v-669l1-6zm155 129v418h124l22-1 29-4 24-6 21-8 16-8 14-9 9-7 10-9 9-9 13-17 9-16 8-17 8-25 6-30 2-24v-38l-3-29-5-24-7-23-8-18-7-13-8-12-9-11-8-9-8-7-13-10-15-9-21-10-26-8-21-4-19-2-22-1z" fill="#2C78E5"/>
<path transform="translate(579,313)" d="m0 0h73l338 1 4 1v137l-2 1h-299v160h211l33 1 1 1v121l-6 1h-239v254l-2 1h-160l-1-1v-675l2-2z" fill="#FE9800"/>
<path transform="translate(692,753)" d="m0 0h1v238l-2 1h-160l-1-1v-7h1v6l4-1 10 1h19l10-1 105-1 6-2 3-3 2-4v-25l-1-8v-79l1-89 1-23z" fill="#FFA404"/>
<path transform="translate(933,614)" d="m0 0 5 1v121l-6 1h-238v-1l24-2h54l41 1h50l38-1 16-1 13-3 2-8v-65l1-20 2-4v-13z" fill="#FFA404"/>
<path transform="translate(734,449)" d="m0 0 85 1 27 1h84l32-1 6 1 12-1 12 2v1h-291v-1l14-2z" fill="#FFA404"/>
<path transform="translate(652,314)" d="m0 0h338v1l-45 1-5 1h-52l-6-1-230-1z" fill="#FFA404"/>
<path transform="translate(691,471)" d="m0 0 2 2v126h-1l-1-10-1-37-1-24v-35z" fill="#FFA404"/>
</svg>
